<?xml version="1.0" encoding="UTF-8" standalone="no"?>
<!-- Created with Inkscape (http://www.inkscape.org/) -->

<svg
   width="100mm"
   height="100mm"
   viewBox="0 0 100 100"
   version="1.1"
   id="svg1"
   xml:space="preserve"
   inkscape:version="1.2.2 (b0a8486541, 2022-12-01)"
   sodipodi:docname="nterslak-transparent.svg"
   inkscape:export-filename="nterslak.png"
   inkscape:export-xdpi="254"
   inkscape:export-ydpi="254"
   xmlns:inkscape="http://www.inkscape.org/namespaces/inkscape"
   xmlns:sodipodi="http://sodipodi.sourceforge.net/DTD/sodipodi-0.dtd"
   xmlns="http://www.w3.org/2000/svg"
   xmlns:svg="http://www.w3.org/2000/svg"><sodipodi:namedview
     id="namedview1"
     pagecolor="#505050"
     bordercolor="#ffffff"
     borderopacity="1"
     inkscape:showpageshadow="0"
     inkscape:pageopacity="0"
     inkscape:pagecheckerboard="1"
     inkscape:deskcolor="#505050"
     inkscape:document-units="mm"
     inkscape:zoom="0.8515625"
     inkscape:cx="73.981651"
     inkscape:cy="160.29358"
     inkscape:window-width="1231"
     inkscape:window-height="785"
     inkscape:window-x="0"
     inkscape:window-y="0"
     inkscape:window-maximized="1"
     inkscape:current-layer="layer1"
     showgrid="false" /><defs
     id="defs1" /><g
     inkscape:label="Ebene 1"
     inkscape:groupmode="layer"
     id="layer1"><path
       stroke-linecap="round"
       stroke-linejoin="round"
       d="m 49.999871,20 c 18.523298,0 34.238934,12.027998 39.790334,28.711997 0.279557,0.828019 0.279557,1.723994 0,2.556004 C 84.25479,67.959997 68.531155,80 49.999871,80 c 0,-24.971041 0,-30.166529 0,-60 z"
       id="path1"
       style="fill:#ffffff;stroke-width:3.99689"
       sodipodi:nodetypes="ccccc"
       inkscape:label="eye" /><path
       id="rect3"
       style="opacity:1;stroke-width:0.264583;fill:#ffffff"
       inkscape:label="fillerBot"
       d="m 47.5,70 h 3 v 10 h -8 z"
       sodipodi:nodetypes="ccccc" /><path
       id="rect1"
       style="opacity:1;fill:#ffffff;stroke-width:0.240839"
       inkscape:label="fillerMid"
       d="m 44.958614,28.814945 2.042561,-1.309703 4.75265,-0.07564 1.487563,44.931398 h -5.111157 l -3.749595,-3.425904 z"
       sodipodi:nodetypes="ccccccc" /><path
       id="rect2"
       style="opacity:1;stroke-width:0.264583;fill:#ffffff"
       d="m 42.5,20 h 8 v 10 l -7.907985,-7.478119 z"
       sodipodi:nodetypes="ccccc"
       inkscape:label="fillerTop" /><path
       stroke-linecap="round"
       stroke-linejoin="round"
       d="m 62.000127,50.000001 c 0.0019,6.628775 -5.37123,12.00346 -11.999999,12.00346 -3.064429,0 -5.860511,-1.148646 -7.981255,-3.038831 -2.466708,-2.198537 -0.913651,-5.412539 -0.912629,-8.976883 0.001,-3.56425 -1.55022,-6.752937 0.917854,-8.950107 2.120163,-1.887448 4.914213,-3.034171 7.97603,-3.034171 6.626064,0 11.998086,5.370463 11.999999,11.996532 z"
       id="path2"
       style="display:inline;opacity:1;fill:#000000;stroke-width:3.99999"
       sodipodi:nodetypes="sssssss"
       inkscape:label="eyeball" /><path
       d="M 11,4 C 9.355469,4 8,5.355469 8,7 8,8.292969 8.84375,9.394531 10,9.8125 v 12.375 C 8.84375,22.605469 8,23.707031 8,25 c 0,1.644531 1.355469,3 3,3 1.644531,0 3,-1.355469 3,-3 0,-1.269531 -0.816406,-2.34375 -1.9375,-2.78125 0.144531,-1.230469 0.621094,-1.835937 1.375,-2.34375 0.898438,-0.605469 2.277344,-0.964844 3.78125,-1.3125 1.503906,-0.347656 3.117188,-0.707031 4.46875,-1.65625 1.1875,-0.832031 2.085938,-2.195312 2.28125,-4.09375 C 25.140625,12.402344 26,11.300781 26,10 26,8.355469 24.644531,7 23,7 c -1.644531,0 -3,1.355469 -3,3 0,1.277344 0.832031,2.351563 1.96875,2.78125 -0.136719,1.3125 -0.644531,1.964844 -1.40625,2.5 -0.898437,0.628906 -2.285156,1 -3.78125,1.34375 -1.496094,0.34375 -3.117187,0.648438 -4.46875,1.5625 -0.109375,0.07422 -0.210937,0.167969 -0.3125,0.25 V 9.8125 C 13.15625,9.394531 14,8.292969 14,7 14,5.355469 12.644531,4 11,4 Z m 0,2 c 0.5625,0 1,0.4375 1,1 0,0.5625 -0.4375,1 -1,1 -0.5625,0 -1,-0.4375 -1,-1 0,-0.5625 0.4375,-1 1,-1 z m 12,3 c 0.5625,0 1,0.4375 1,1 0,0.5625 -0.4375,1 -1,1 -0.5625,0 -1,-0.4375 -1,-1 0,-0.5625 0.4375,-1 1,-1 z M 11,24 c 0.5625,0 1,0.4375 1,1 0,0.5625 -0.4375,1 -1,1 -0.5625,0 -1,-0.4375 -1,-1 0,-0.5625 0.4375,-1 1,-1 z"
       id="path1-0"
       style="display:inline;fill:#ffffff"
       transform="matrix(-2.5,0,0,2.5,70,10)"
       inkscape:label="branch" /></g></svg>
