<?xml version="1.0" standalone="no"?>
<!DOCTYPE svg PUBLIC "-//W3C//DTD SVG 20010904//EN"
 "http://www.w3.org/TR/2001/REC-SVG-20010904/DTD/svg10.dtd">
<svg version="1.0" xmlns="http://www.w3.org/2000/svg"
 width="700.000000pt" height="700.000000pt" viewBox="0 0 700.000000 700.000000"
 preserveAspectRatio="xMidYMid meet">
<metadata>
Created by potrace 1.14, written by Peter Selinger 2001-2017
</metadata>
<g transform="translate(0.000000,700.000000) scale(0.100000,-0.100000)"
fill="#000000" stroke="none">
<path d="M2841 5585 c-179 -50 -329 -202 -376 -380 -29 -113 -15 -257 36 -358
52 -104 164 -211 263 -252 l36 -15 0 -750 0 -750 -65 45 c-148 101 -324 164
-715 256 -584 136 -782 233 -893 437 -26 48 -67 184 -67 223 0 12 22 29 62 51
163 86 278 273 278 449 0 154 -47 268 -156 377 -212 213 -526 213 -738 0 -108
-109 -156 -221 -156 -368 0 -200 113 -378 298 -469 33 -16 54 -33 56 -46 35
-197 79 -321 158 -442 116 -178 276 -301 515 -397 122 -49 241 -82 563 -161
124 -30 268 -68 320 -86 323 -107 471 -241 514 -466 l13 -71 -51 -23 c-69 -33
-186 -145 -224 -217 -138 -259 -35 -584 226 -715 116 -58 137 -59 621 -54 383
4 453 7 573 26 866 136 1600 622 2067 1366 79 125 196 364 253 515 38 101 43
124 43 195 -1 74 -5 91 -59 225 -153 381 -346 682 -621 969 -447 466 -1031
769 -1681 872 -125 20 -184 22 -589 25 -376 3 -459 1 -504 -11z m224 -364
c125 -73 97 -273 -43 -311 -131 -35 -247 80 -212 210 29 109 156 159 255 101z
m-2103 -523 c56 -32 83 -80 83 -149 0 -43 -6 -64 -25 -92 -71 -103 -228 -102
-293 3 -29 46 -30 131 -2 178 46 77 156 105 237 60z m2668 -369 c93 -15 204
-54 290 -102 102 -57 250 -205 307 -307 184 -328 138 -724 -115 -992 -231
-245 -562 -328 -883 -221 l-79 26 0 767 0 768 83 26 c138 45 266 57 397 35z
m-565 -2258 c125 -73 97 -273 -43 -311 -131 -35 -247 80 -212 210 29 109 156
159 255 101z"/>
</g>
</svg>
